<svg xmlns="http://www.w3.org/2000/svg" width="25" height="26" viewBox="0 0 25 26" fill="none">
  <path d="M8.33333 15.084C8.03819 15.084 7.79063 14.984 7.59063 14.784C7.39132 14.5847 7.29167 14.3375 7.29167 14.0423C7.29167 13.7472 7.39132 13.4996 7.59063 13.2996C7.79063 13.1003 8.03819 13.0007 8.33333 13.0007C8.62847 13.0007 8.87604 13.1003 9.07604 13.2996C9.27535 13.4996 9.375 13.7472 9.375 14.0423C9.375 14.3375 9.27535 14.5847 9.07604 14.784C8.87604 14.984 8.62847 15.084 8.33333 15.084ZM12.5 15.084C12.2049 15.084 11.9576 14.984 11.7583 14.784C11.5583 14.5847 11.4583 14.3375 11.4583 14.0423C11.4583 13.7472 11.5583 13.4996 11.7583 13.2996C11.9576 13.1003 12.2049 13.0007 12.5 13.0007C12.7951 13.0007 13.0427 13.1003 13.2427 13.2996C13.442 13.4996 13.5417 13.7472 13.5417 14.0423C13.5417 14.3375 13.442 14.5847 13.2427 14.784C13.0427 14.984 12.7951 15.084 12.5 15.084ZM16.6667 15.084C16.3715 15.084 16.1243 14.984 15.925 14.784C15.725 14.5847 15.625 14.3375 15.625 14.0423C15.625 13.7472 15.725 13.4996 15.925 13.2996C16.1243 13.1003 16.3715 13.0006 16.6667 13.0006C16.9618 13.0006 17.209 13.1003 17.4083 13.2996C17.6083 13.4996 17.7083 13.7472 17.7083 14.0423C17.7083 14.3375 17.6083 14.5847 17.4083 14.784C17.209 14.984 16.9618 15.084 16.6667 15.084ZM5.20833 23.4173C4.63542 23.4173 4.14479 23.2135 3.73646 22.8059C3.32882 22.3975 3.125 21.9069 3.125 21.334L3.125 6.75065C3.125 6.17773 3.32882 5.68746 3.73646 5.27982C4.14479 4.87148 4.63542 4.66732 5.20833 4.66732L6.25 4.66732L6.25 2.58398L8.33333 2.58398L8.33333 4.66732L16.6667 4.66732L16.6667 2.58398L18.75 2.58398L18.75 4.66732L19.7917 4.66732C20.3646 4.66732 20.8552 4.87148 21.2635 5.27982C21.6712 5.68746 21.875 6.17773 21.875 6.75065L21.875 21.334C21.875 21.9069 21.6712 22.3975 21.2635 22.8059C20.8552 23.2135 20.3646 23.4173 19.7917 23.4173L5.20833 23.4173ZM5.20833 21.334L19.7917 21.334L19.7917 10.9173L5.20833 10.9173L5.20833 21.334Z" fill="#800080"/>
</svg>