<svg xmlns="http://www.w3.org/2000/svg" width="24" height="24" viewBox="0 0 24 24" fill="none">
  <g clip-path="url(#clip0_2293_2045)">
    <path d="M10.2002 15.7651L10.1946 15.7521C10.0825 15.7256 9.97106 15.6965 9.86033 15.6648L9.85197 15.662C8.79283 15.3576 7.81471 14.8212 6.98851 14.0919C6.07988 13.2904 5.38113 12.2787 4.95318 11.1452C4.52523 10.0116 4.38108 8.79059 4.53329 7.58854C4.6855 6.38649 5.12946 5.23992 5.82645 4.24881C6.52344 3.2577 7.45231 2.45215 8.53205 1.90238C9.61179 1.35261 10.8096 1.07533 12.0211 1.0947C13.2326 1.11407 14.421 1.42952 15.4826 2.01353C16.5442 2.59754 17.4468 3.43239 18.1118 4.44528C18.7767 5.45817 19.1838 6.61834 19.2975 7.82464C19.3337 8.20811 19.0189 8.52101 18.6336 8.52101C18.2492 8.52101 17.9419 8.20811 17.8973 7.82557C17.7746 6.77015 17.3754 5.76584 16.7401 4.91416C16.1047 4.06249 15.2558 3.39364 14.2791 2.97522C13.3025 2.5568 12.2326 2.40366 11.1778 2.53126C10.1229 2.65886 9.12047 3.06269 8.27173 3.70192C7.42299 4.34115 6.75805 5.19313 6.34414 6.17173C5.93022 7.15033 5.782 8.22086 5.91446 9.27511C6.04691 10.3294 6.45535 11.3299 7.09849 12.1757C7.74162 13.0215 8.59665 13.6825 9.57714 14.0919L9.61428 14.1077C9.79998 14.1839 9.99063 14.251 10.1862 14.3092C10.3506 13.9121 10.6476 13.5843 11.0266 13.3817C11.4056 13.179 11.8431 13.1142 12.2646 13.1981C12.6861 13.282 13.0655 13.5095 13.338 13.8418C13.6105 14.1741 13.7593 14.5907 13.7591 15.0204C13.7595 15.4472 13.6129 15.8611 13.3439 16.1925C13.075 16.5238 12.7001 16.7524 12.2824 16.8398C11.8647 16.9272 11.4296 16.8681 11.0503 16.6724C10.6711 16.4766 10.3709 16.1562 10.2002 15.7651ZM9.28467 16.9461C7.63524 16.4331 6.17274 15.4472 5.07861 14.1105C4.40055 14.1899 3.77526 14.5156 3.3215 15.0257C2.86774 15.5358 2.6171 16.1947 2.61719 16.8774V17.5413C2.61719 20.9934 6.52613 23.3768 11.9021 23.3768C17.278 23.3768 21.187 20.8625 21.187 17.5413V16.8774C21.187 16.1387 20.8935 15.4302 20.3711 14.9078C19.8487 14.3854 19.1403 14.0919 18.4015 14.0919H15.0172C15.2362 14.8255 15.1892 15.6128 14.8845 16.3151C14.5798 17.0174 14.037 17.5896 13.3517 17.9308C12.6664 18.272 11.8827 18.3603 11.1386 18.1801C10.3946 18 9.73801 17.563 9.28467 16.9461ZM16.5445 8.52101C16.5445 7.11713 15.9224 5.85903 14.9373 5.00761C14.443 4.58121 13.8644 4.26385 13.2391 4.07624C12.6139 3.88863 11.9561 3.83499 11.3087 3.91882C10.6613 4.00265 10.0389 4.22206 9.48207 4.56274C8.92523 4.90342 8.4465 5.35771 8.07713 5.89594C7.70776 6.43417 7.45604 7.04425 7.33843 7.68635C7.22081 8.32846 7.23993 8.98815 7.39453 9.62236C7.54914 10.2566 7.83577 10.8511 8.23569 11.367C8.63562 11.8829 9.13985 12.3087 9.71549 12.6166C10.3137 12.0724 11.0934 11.7708 11.9021 11.7707C12.7111 11.7705 13.4911 12.0722 14.0896 12.6166C14.8314 12.2203 15.4516 11.63 15.884 10.9086C16.3164 10.1873 16.5447 9.36202 16.5445 8.52101Z" fill="white"/>
  </g>
  <defs>
    <clipPath id="clip0_2293_2045">
      <rect width="22.9583" height="22.9583" fill="white" transform="translate(0.414062 0.417969)"/>
    </clipPath>
  </defs>
</svg>